<svg xmlns="http://www.w3.org/2000/svg" xmlns:xlink="http://www.w3.org/1999/xlink" width="1024" height="1024" viewBox="0 0 1024 1024"><defs><clipPath id="b"><rect width="1024" height="1024"/></clipPath></defs><g id="a" clip-path="url(#b)"><rect width="1024" height="1024" fill="#fff"/><rect width="1024" height="1024" fill="#fff"/><path d="M286.079,528.146,244.592,490.72C97.264,355.456,0,267.663,0,158.3,0,69.073,68.656,0,157.343,0c50.062,0,97.263,23.027,128.736,60.444C317.55,23.027,364.749,0,414.814,0,503.5,0,572.158,69.073,572.158,158.3c0,109.365-97.265,197.158-244.592,332.421Z" transform="translate(798.079 822.79) rotate(180)" fill="#d3c3ff"/><path d="M289.454,532.646,247.967,495.22C100.639,359.956,3.375,272.163,3.375,162.8,3.375,73.573,72.031,4.5,160.718,4.5c50.062,0,97.263,23.027,128.736,60.444C320.925,27.527,368.124,4.5,418.189,4.5c88.687,0,157.344,69.073,157.344,158.3,0,109.365-97.265,197.158-244.592,332.421Z" transform="translate(222.546 196.71)" fill="rgba(0,49,97,0.7)" opacity="0.7"/></g></svg>